<svg width="40" height="40" viewBox="0 0 40 40" xmlns="http://www.w3.org/2000/svg"><g fill="none" fill-rule="evenodd"><circle fill="#333" cx="20" cy="20" r="20"/><path d="M25.873 25.98H23.43v-4.917c0-.68-.546-1.23-1.22-1.23-.674 0-1.22.55-1.22 1.23v4.917h-2.443v-8.605h2.442v1.527c.503-.697 1.273-1.527 2.136-1.527 1.517 0 2.747 1.376 2.747 3.073v5.532zm-9.768-9.834c-.674 0-1.22-.55-1.22-1.23 0-.678.546-1.228 1.22-1.228.674 0 1.22.55 1.22 1.23 0 .678-.546 1.228-1.22 1.228zm1.22 9.834h-2.44v-8.605h2.44v8.605zM26.256 10H13.28C11.478 10 10 11.487 10 13.303v13.06c0 1.818 1.477 3.304 3.28 3.304h12.975c1.804 0 3.28-1.486 3.28-3.303v-13.06c0-1.817-1.476-3.304-3.28-3.304z" fill="#FFF"/></g></svg>