<svg width="40" height="40" viewBox="0 0 40 40" xmlns="http://www.w3.org/2000/svg"><title>EE380844-39F5-4CC0-8861-BD0A2D81755E</title><g fill="none" fill-rule="evenodd"><circle fill="#333" cx="20" cy="20" r="20"/><path d="M28.7 13.892c.947-.57 1.673-1.476 2.015-2.554-.885.53-1.866.913-2.91 1.12C26.97 11.56 25.78 11 24.462 11c-2.53 0-4.58 2.067-4.58 4.618 0 .362.04.714.118 1.052-3.807-.193-7.183-2.03-9.443-4.825-.395.682-.62 1.475-.62 2.322 0 1.602.808 3.015 2.038 3.843-.75-.024-1.458-.23-2.075-.577v.058c0 2.238 1.578 4.105 3.674 4.53-.384.104-.79.16-1.207.16-.295 0-.582-.028-.862-.082.583 1.834 2.275 3.17 4.28 3.207-1.568 1.238-3.543 1.977-5.69 1.977-.37 0-.735-.022-1.093-.065 2.028 1.31 4.436 2.075 7.023 2.075 8.428 0 13.036-7.037 13.036-13.14 0-.2-.005-.398-.014-.596.895-.65 1.672-1.465 2.286-2.39-.822.367-1.704.615-2.63.726z" fill="#FFF"/></g></svg>