<svg width="40" height="40" viewBox="0 0 40 40" xmlns="http://www.w3.org/2000/svg"><title>8E0F09FA-9F71-48A4-9AB3-3F77E5CBEA78</title><g fill="none" fill-rule="evenodd"><path d="M20 40c11.046 0 20-8.954 20-20S31.046 0 20 0 0 8.954 0 20s8.954 20 20 20z" fill="#333"/><path d="M27.293 10h-13.05C12.46 10 11 11.47 11 13.265v13.137c0 1.796 1.46 3.265 3.243 3.265h13.05c1.784 0 3.243-1.47 3.243-3.265V13.265c0-1.796-1.46-3.265-3.243-3.265zm-10.04 8.604h7.03c.133.386.205.8.205 1.23 0 2.065-1.67 3.745-3.72 3.745-2.05 0-3.72-1.68-3.72-3.746 0-.43.072-.844.206-1.23zm10.84 0v7.376c0 .676-.548 1.23-1.22 1.23h-12.21c-.672 0-1.22-.554-1.22-1.23v-7.376h1.91c-.09.396-.137.807-.137 1.23 0 3.08 2.49 5.59 5.552 5.59 3.06 0 5.552-2.51 5.552-5.59 0-.423-.047-.834-.136-1.23h1.91zm0-4.302c0 .338-.274.615-.61.615h-1.22c-.336 0-.61-.277-.61-.615v-1.23c0-.337.274-.614.61-.614h1.22c.336 0 .61.277.61.615v1.23z" fill="#FFF"/></g></svg>