<?xml version="1.0" encoding="utf-8"?>
<!-- Generator: Adobe Illustrator 23.0.1, SVG Export Plug-In . SVG Version: 6.00 Build 0)  -->
<svg version="1.1" id="Layer_1" xmlns="http://www.w3.org/2000/svg" xmlns:xlink="http://www.w3.org/1999/xlink" x="0px" y="0px"
	 viewBox="0 0 70.28 70.28" style="enable-background:new 0 0 70.28 70.28;" xml:space="preserve">
<style type="text/css">
	.st0{fill:#323333;}
	.st1{fill:#FFFFFF;}
</style>
<circle class="st0" cx="35.13" cy="35.14" r="35.14"/>
<path class="st1" d="M47.86,55.6H22.42c-4.25,0-7.7-3.45-7.7-7.7V22.46c0-4.25,3.45-7.7,7.7-7.7h25.44c4.25,0,7.7,3.45,7.7,7.7V47.9
	C55.55,52.16,52.11,55.6,47.86,55.6z"/>
<g>
	<path class="st0" d="M35.56,20.01c-8.19,0-14.82,6.64-14.82,14.82c0,4.06,2.15,7.69,2.15,7.69l-2.59,7.89l8.12-2.6
		c0,0,3.02,1.83,7.14,1.83c8.19,0,14.82-6.64,14.82-14.82C50.39,26.65,43.75,20.01,35.56,20.01z M35.56,47.29
		c-3.81,0-6.86-2.06-6.86-2.06l-4.68,1.53l1.52-4.53c0,0-2.43-3.36-2.43-7.39c0-6.88,5.57-12.45,12.45-12.45s12.45,5.57,12.45,12.45
		C48.02,41.71,42.44,47.29,35.56,47.29z"/>
	<path class="st0" d="M29.92,28.38c0,0,0.4-0.25,0.61-0.25s1.17,0,1.17,0s0.31,0.05,0.46,0.38s1.13,2.64,1.2,2.82
		s0.26,0.62-0.04,1.02c-0.31,0.4-0.95,1.13-0.95,1.13s-0.25,0.23-0.03,0.59s0.99,1.56,2.01,2.47c1.01,0.91,2.25,1.57,2.87,1.78
		c0.62,0.2,0.75-0.07,0.99-0.37s0.97-1.24,0.97-1.24s0.25-0.37,0.75-0.14c0.5,0.23,2.93,1.4,2.93,1.4s0.3,0.05,0.31,0.38
		c0.02,0.33,0.22,1.32-0.66,2.27s-2.75,1.39-3.64,1.14s-3.82-1.01-5.73-2.8c-1.91-1.78-3.46-3.66-4.09-5.04s-0.6-2.2-0.56-2.59
		C28.52,30.94,28.72,29.15,29.92,28.38z"/>
</g>
</svg>
